<?xml version="1.0" standalone="no"?><!DOCTYPE svg PUBLIC "-//W3C//DTD SVG 1.1//EN" "http://www.w3.org/Graphics/SVG/1.1/DTD/svg11.dtd"><svg t="1544105590867" class="icon" style="" viewBox="0 0 1024 1024" version="1.1" xmlns="http://www.w3.org/2000/svg" p-id="4146" xmlns:xlink="http://www.w3.org/1999/xlink" width="200" height="200"><defs><style type="text/css"></style></defs><path d="M655.58253 161.724518c-54.76554 0-104.459127 20.519015-145.894532 59.815819-41.652156-39.730304-90.543766-59.815819-145.865632-59.815819-132.116447 0-239.60285 115.079884-239.60285 256.531038 0 82.834686 36.948677 140.454103 64.042447 182.705934 63.421096 99.755648 194.670543 203.253849 267.267396 256.068638l3.366852 2.456502c14.450011 11.234883 31.862273 17.188288 50.372737 17.188287 17.433938 0 34.45605-5.657179 49.231186-16.335737l0.946476-0.700825c0.599675-0.455175 1.784576-1.322176 3.496902-2.564877 72.575178-52.923164 203.867974-156.551415 267.881522-256.299838 26.970945-42.071206 63.919622-99.683398 63.919621-182.525309-0.007225-141.443929-107.291329-256.523813-239.162125-256.523813z" fill="#d81e06" p-id="4147"></path></svg>