<?xml version="1.0" standalone="no"?><!DOCTYPE svg PUBLIC "-//W3C//DTD SVG 1.1//EN" "http://www.w3.org/Graphics/SVG/1.1/DTD/svg11.dtd"><svg t="1544155310070" class="icon" style="" viewBox="0 0 1024 1024" version="1.1" xmlns="http://www.w3.org/2000/svg" p-id="1757" xmlns:xlink="http://www.w3.org/1999/xlink" width="200" height="200"><defs><style type="text/css"></style></defs><path d="M900.5 241H300.7c-33 0-60 27-60 60v599c0 33 27 60 60 60h599.8c33 0 60-27 60-60V301c0-33-27-60-60-60z m0 658.9l-599.7 0.1-0.1-0.1V301.1l0.1-0.1h599.6l0.1 0.1v598.8z" p-id="1758"></path><path d="M699.2 94c0-16.6-13.4-30-30-30H148.6c-46.4 0-84.1 37.7-84.1 84v519c0 16.6 13.4 30 30 30s30-13.4 30-30V148c0-13.2 10.8-24 24.1-24h520.6c16.5 0 30-13.4 30-30z" p-id="1759"></path><path d="M799.9 401h-398c-13.8 0-25 11.2-25 25v10c0 13.8 11.2 25 25 25h398c13.8 0 25-11.2 25-25v-10c0-13.8-11.3-25-25-25zM799.9 581h-398c-13.8 0-25 11.2-25 25v10c0 13.8 11.2 25 25 25h398c13.8 0 25-11.2 25-25v-10c0-13.8-11.3-25-25-25zM799.9 761h-398c-13.8 0-25 11.2-25 25v10c0 13.8 11.2 25 25 25h398c13.8 0 25-11.2 25-25v-10c0-13.8-11.3-25-25-25z" p-id="1760"></path></svg>