<?xml version="1.0" standalone="no"?><!DOCTYPE svg PUBLIC "-//W3C//DTD SVG 1.1//EN" "http://www.w3.org/Graphics/SVG/1.1/DTD/svg11.dtd"><svg t="1545101652020" class="icon" style="" viewBox="0 0 1024 1024" version="1.1" xmlns="http://www.w3.org/2000/svg" p-id="2082" xmlns:xlink="http://www.w3.org/1999/xlink" width="200" height="200"><defs><style type="text/css"></style></defs><path d="M795.648 874.496c0 33.792-27.648 61.44-61.44 61.44h-440.32c-33.792 0-61.44-27.648-61.44-61.44V226.304h562.176v648.192z m-439.296-757.76c0-3.072 1.024-6.144 3.072-8.192 2.048-2.048 5.12-3.072 8.192-3.072h292.864c7.168 0 12.288 5.12 12.288 12.288v36.864h-317.44v-37.888z m622.592 35.84H747.52v-36.864C747.52 68.608 708.608 30.72 661.504 30.72H368.64c-47.104 0-86.016 37.888-86.016 86.016V153.6H50.176c-13.312 0-25.6 7.168-31.744 18.432-6.144 11.264-6.144 25.6 0 36.864s18.432 18.432 31.744 18.432h109.568v648.192c0 73.728 60.416 134.144 134.144 134.144h440.32c73.728 0 134.144-60.416 134.144-134.144V226.304h109.568c20.48 0 36.864-16.384 36.864-36.864 1.024-20.48-15.36-36.864-35.84-36.864zM515.072 825.344c20.48 0 36.864-16.384 36.864-36.864V397.312c0-13.312-7.168-25.6-18.432-31.744-11.264-6.144-25.6-6.144-36.864 0s-18.432 18.432-18.432 31.744V788.48c0 20.48 16.384 36.864 36.864 36.864m-171.008 0c10.24 0 19.456-4.096 25.6-10.24 7.168-7.168 10.24-16.384 10.24-25.6V397.312c0-13.312-7.168-25.6-18.432-31.744-11.264-6.144-25.6-6.144-36.864 0s-18.432 18.432-18.432 31.744V788.48c1.024 20.48 17.408 36.864 37.888 36.864m342.016 0c20.48 0 36.864-16.384 36.864-36.864V397.312c0-13.312-7.168-25.6-18.432-31.744-11.264-6.144-25.6-6.144-36.864 0s-18.432 18.432-18.432 31.744V788.48c0 20.48 16.384 36.864 36.864 36.864" fill="#202020" p-id="2083"></path></svg>