<?xml version="1.0" standalone="no"?><!DOCTYPE svg PUBLIC "-//W3C//DTD SVG 1.1//EN" "http://www.w3.org/Graphics/SVG/1.1/DTD/svg11.dtd"><svg t="1545279872643" class="icon" style="" viewBox="0 0 1024 1024" version="1.1" xmlns="http://www.w3.org/2000/svg" p-id="2069" xmlns:xlink="http://www.w3.org/1999/xlink" width="200" height="200"><defs><style type="text/css"></style></defs><path d="M487.119333 698.748265c3.247974 3.261277 7.148817 5.848195 11.472286 7.635911 4.294816 1.77646 8.852622 2.707668 13.426801 2.707668 4.574179 0 9.128915-0.931209 13.423731-2.707668 4.325515-1.789763 8.225335-4.374634 11.474332-7.635911l225.00559-225.00559c13.730723-13.730723 13.730723-35.975353 0-49.706075-13.730723-13.730723-35.975353-13.730723-49.706075 0L547.167964 589.083609 547.167964 156.1115c0-19.429515-15.722076-35.151591-35.151591-35.151591s-35.151591 15.722076-35.151591 35.151591L476.864782 589.089749 311.785026 424.037622c-13.730723-13.730723-35.975353-13.730723-49.706075 0s-13.730723 35.975353 0 49.706075L487.119333 698.748265z" p-id="2070"></path><path d="M840.770885 206.02326c-19.429515 0-35.151591 15.722076-35.151591 35.151591s15.722076 35.151591 35.151591 35.151591c26.500561 0 47.028083 14.794961 47.028083 27.496238l0 501.043461c0 12.701277-20.527522 27.461445-47.028083 27.461445L183.229115 832.327586c-26.500561 0-47.028083-14.761192-47.028083-27.461445L136.201032 303.82268c0-12.701277 20.527522-27.496238 47.028083-27.496238 19.429515 0 35.151591-15.722076 35.151591-35.151591s-15.722076-35.151591-35.151591-35.151591c-64.706721 0-117.331265 43.87016-117.331265 97.798397l0 501.043461c0 53.894468 52.623521 97.764628 117.331265 97.764628l657.541771 0c64.706721 0 117.331265-43.87016 117.331265-97.764628L958.102151 303.82268C958.102151 249.894444 905.477606 206.02326 840.770885 206.02326z" p-id="2071"></path></svg>