<?xml version="1.0" standalone="no"?><!DOCTYPE svg PUBLIC "-//W3C//DTD SVG 1.1//EN" "http://www.w3.org/Graphics/SVG/1.1/DTD/svg11.dtd"><svg t="1545185998557" class="icon" style="" viewBox="0 0 1024 1024" version="1.1" xmlns="http://www.w3.org/2000/svg" p-id="3769" xmlns:xlink="http://www.w3.org/1999/xlink" width="200" height="200"><defs><style type="text/css"></style></defs><path d="M977.493333 277.304889c-0.753778-30.421333-12.586667-59.320889-32.455111-79.189333l-117.930666-118.001778c-19.370667-19.356444-45.980444-30.179556-74.922667-30.179556-30.435556 0-59.832889 11.690667-80.711111 32.554667L440.533333 312.931556c-136.092444-39.395556-284.344889-2.247111-385.720889 99.171555a28.387556 28.387556 0 0 0 0.256 40.490667c67.584 65.820444 152.590222 150.556444 235.52 233.784889L65.749333 908.032a28.444444 28.444444 0 1 0 39.950223 40.504889l225.024-221.852445a112132.266667 112132.266667 0 0 1 121.984 122.851556c46.663111 47.075556 86.926222 87.637333 115.484444 116.195556a28.487111 28.487111 0 0 0 40.220444 0c99.399111-99.356444 137.315556-241.052444 102.158223-375.438223L947.2 357.873778c20.010667-20.010667 31.061333-49.393778 30.293333-80.568889zM587.505778 904.533333a66386.190222 66386.190222 0 0 1-94.421334-95.089777c-112.469333-113.365333-263.936-266.069333-376.832-376.604445a335.047111 335.047111 0 0 1 309.916445-64.881778l225.664 224.142223c33.080889 109.411556 8.860444 225.92-64.327111 312.433777z m319.459555-586.837333L680.248889 544.384 490.296889 353.92a28.387556 28.387556 0 0 0-0.227556-8.988444L711.708444 123.292444c10.296889-10.268444 25.045333-16.170667 40.490667-16.170666 13.724444 0 26.055111 4.750222 34.673778 13.368889l117.930667 117.930666c9.514667 9.514667 15.431111 24.590222 15.800888 40.32 0.384 15.687111-4.579556 29.895111-13.639111 38.954667z" fill="" p-id="3770"></path><path d="M589.112889 297.144889l-5.504 5.475555a14.193778 14.193778 0 0 0 10.040889 24.291556 14.051556 14.051556 0 0 0 10.012444-4.152889l5.518222-5.475555c5.575111-5.546667 5.603556-14.535111 0.042667-20.110223s-14.549333-5.603556-20.110222-0.028444zM789.162667 174.933333c-21.091556-21.12-57.415111-20.451556-79.303111 1.436445l-92.771556 92.771555a14.208 14.208 0 1 0 20.110222 20.110223l92.771556-92.771556c10.609778-10.595556 29.255111-11.264 39.096889-1.436444l60.501333 60.501333a14.208 14.208 0 1 0 20.110222-20.110222L789.162667 174.933333z" fill="" p-id="3771"></path></svg>