<?xml version="1.0" standalone="no"?><!DOCTYPE svg PUBLIC "-//W3C//DTD SVG 1.1//EN" "http://www.w3.org/Graphics/SVG/1.1/DTD/svg11.dtd"><svg t="1545282240860" class="icon" style="" viewBox="0 0 1024 1024" version="1.1" xmlns="http://www.w3.org/2000/svg" p-id="4123" xmlns:xlink="http://www.w3.org/1999/xlink" width="200" height="200"><defs><style type="text/css"></style></defs><path d="M270.336 965.632c-17.408 0-33.792-5.12-48.128-15.36-25.6-18.432-37.888-49.152-32.768-80.896l36.864-215.04c1.024-7.168-1.024-13.312-6.144-18.432L64.512 483.328c-22.528-22.528-30.72-54.272-20.48-84.992 10.24-29.696 34.816-51.2 66.56-56.32l216.064-31.744c7.168-1.024 12.288-5.12 15.36-11.264l96.256-195.584c14.336-28.672 41.984-46.08 73.728-46.08s60.416 17.408 73.728 46.08l96.256 195.584c3.072 6.144 9.216 10.24 15.36 11.264l216.064 31.744c31.744 4.096 56.32 25.6 66.56 56.32 10.24 29.696 2.048 62.464-20.48 84.992L803.84 635.904c-12.288 12.288-31.744 11.264-43.008-1.024s-11.264-31.744 1.024-43.008l156.672-152.576c8.192-8.192 6.144-17.408 5.12-21.504s-5.12-12.288-17.408-14.336l-216.064-31.744c-26.624-4.096-50.176-20.48-62.464-45.056l-96.256-195.584c-5.12-10.24-15.36-11.264-18.432-11.264s-13.312 1.024-18.432 11.264l-96.256 195.584c-12.288 24.576-34.816 40.96-62.464 45.056l-216.064 31.744c-11.264 2.048-15.36 10.24-17.408 14.336s-3.072 13.312 5.12 21.504l156.672 152.576c19.456 18.432 28.672 46.08 23.552 72.704l-36.864 215.04c-2.048 11.264 5.12 18.432 8.192 20.48s11.264 7.168 22.528 2.048l193.536-101.376c23.552-12.288 52.224-12.288 76.8 0l193.536 101.376c10.24 5.12 18.432 1.024 22.528-2.048 3.072-2.048 10.24-9.216 8.192-20.48L747.52 713.728c-3.072-16.384 8.192-32.768 25.6-35.84 16.384-3.072 32.768 8.192 35.84 24.576l28.672 165.888c5.12 30.72-7.168 62.464-32.768 80.896s-58.368 20.48-87.04 6.144L522.24 855.04c-6.144-3.072-13.312-3.072-19.456 0l-193.536 101.376c-12.288 6.144-25.6 9.216-38.912 9.216z" p-id="4124"></path></svg>