<?xml version="1.0" standalone="no"?><!DOCTYPE svg PUBLIC "-//W3C//DTD SVG 1.1//EN" "http://www.w3.org/Graphics/SVG/1.1/DTD/svg11.dtd"><svg t="1545289204757" class="icon" style="" viewBox="0 0 1024 1024" version="1.1" xmlns="http://www.w3.org/2000/svg" p-id="4275" xmlns:xlink="http://www.w3.org/1999/xlink" width="200" height="200"><defs><style type="text/css"></style></defs><path d="M994.112 994.112a95.957333 95.957333 0 0 1-135.744 0L633.344 769.152C569.984 808.32 496 832 416 832 186.24 832 0 645.76 0 416S186.24 0 416 0 832 186.24 832 416c0 80-23.68 153.984-62.784 217.408l224.96 224.96a96 96 0 0 1-0.064 135.744zM416 128C256.96 128 128 256.96 128 416S256.96 704 416 704 704 575.04 704 416 575.04 128 416 128zM448 576h-64v-128h-128v-64h128v-128h64v128h128v64h-128v128z" p-id="4276"></path></svg>